<?xml version="1.0" encoding="UTF-8" standalone="no"?>
<svg
   version="1.1"
   width="87.110893"
   height="83.405533"
   style="clip-rule:evenodd;fill-rule:evenodd;image-rendering:optimizeQuality;shape-rendering:geometricPrecision;text-rendering:geometricPrecision"
   id="svg42"
   sodipodi:docname="logo.svg"
   inkscape:export-filename="logo.svg"
   inkscape:export-xdpi="96"
   inkscape:export-ydpi="96"
   xmlns:inkscape="http://www.inkscape.org/namespaces/inkscape"
   xmlns:sodipodi="http://sodipodi.sourceforge.net/DTD/sodipodi-0.dtd"
   xmlns="http://www.w3.org/2000/svg"
   xmlns:svg="http://www.w3.org/2000/svg">
  <defs
     id="defs46" />
  <sodipodi:namedview
     id="namedview44"
     pagecolor="#ffffff"
     bordercolor="#000000"
     borderopacity="0.25"
     inkscape:showpageshadow="2"
     inkscape:pageopacity="0.0"
     inkscape:pagecheckerboard="0"
     inkscape:deskcolor="#d1d1d1"
     showgrid="false" />
  <g
     id="g226"
     transform="matrix(0.43666205,0,0,0.43113197,-1.6349188,0.5841878)">
    <g
       id="g4"
       transform="matrix(0.21804588,0,0,0.21804588,-16.116178,-12.567649)">
      <path
         style="opacity:0.995"
         fill="#fcfcfc"
         d="m 836.5,271.5 c 6.374,9.874 12.541,19.874 18.5,30 4.712,9.755 9.712,19.422 15,29 30.354,66.48 41.021,136.146 32,209 -3.084,26.669 -9.084,52.669 -18,78 -6.925,22.123 -16.092,43.123 -27.5,63 -0.673,2.351 -1.34,4.684 -2,7 -3.55,8.099 -7.883,15.765 -13,23 -9.058,11.055 -17.725,22.388 -26,34 -7.352,7.851 -14.519,15.851 -21.5,24 -20.25,18.255 -41.083,35.755 -62.5,52.5 -1.245,0.791 -2.578,1.291 -4,1.5 -14.645,7.117 -28.978,14.951 -43,23.5 -56.148,26.769 -115.648,39.602 -178.5,38.5 -73.575,-0.634 -141.742,-19.801 -204.5,-57.5 -0.667,-1 -1.333,-2 -2,-3 -3.922,-2.11 -7.922,-3.943 -12,-5.5 -73.631,-51.384 -125.131,-119.05 -154.5,-203 -22.525,-73.884 -24.192,-148.217 -5,-223 14.877,-49.412 38.544,-94.412 71,-135 C 291.297,145.113 410.13,94.2793 555.5,105 c 83.352,9.861 156.352,42.194 219,97 15.529,15.195 30.696,30.695 45.5,46.5 5.719,7.545 11.219,15.212 16.5,23 z"
         id="path2" />
    </g>
    <g
       id="g8"
       transform="matrix(0.21804588,0,0,0.21804588,-16.116178,-12.567649)">
      <path
         style="opacity:1"
         fill="#030102"
         d="m 479.5,141.5 c 129.484,-7.93 234.984,38.07 316.5,138 40.326,51.266 63.659,109.6 70,175 11.028,124.37 -29.472,228.203 -121.5,311.5 -67.123,55.995 -144.789,83.828 -233,83.5 -44.663,0.723 -87.996,-6.444 -130,-21.5 -13.165,-5.278 -26.165,-10.944 -39,-17 C 289.852,781.025 246.018,741.192 211,691.5 159.219,612.082 141.552,525.415 158,431.5 175.309,347.652 216.475,278.485 281.5,224 c 46.117,-39.222 99.117,-64.888 159,-77 13.084,-2.246 26.084,-4.079 39,-5.5 z"
         id="path6" />
    </g>
    <g
       id="g12"
       transform="matrix(0.21804588,0,0,0.21804588,-16.116178,-12.567649)">
      <path
         style="opacity:1"
         fill="#fcfcfc"
         d="m 541.5,765.5 c -0.131,0.739 0.036,1.406 0.5,2 39.761,-0.997 79.594,-1.33 119.5,-1 17.707,7.104 22.541,19.437 14.5,37 -3.092,4.428 -7.259,7.261 -12.5,8.5 -99.667,0.667 -199.333,0.667 -299,0 -13.865,-4.555 -19.365,-14.055 -16.5,-28.5 2.744,-7.745 7.911,-13.245 15.5,-16.5 42.719,-1.498 85.386,-1.998 128,-1.5 -0.991,-27.622 -1.325,-55.289 -1,-83 -49.198,-9.176 -87.698,-34.509 -115.5,-76 -15.146,-25.91 -23.146,-53.91 -24,-84 -0.667,-52.667 -0.667,-105.333 0,-158 11.346,-68.011 49.512,-113.511 114.5,-136.5 80.379,-18.7 144.213,5.467 191.5,72.5 11.471,18.075 18.804,37.741 22,59 0.667,56 0.667,112 0,168 -6.639,67.619 -40.806,115.452 -102.5,143.5 -11.223,4.889 -22.89,8.055 -35,9.5 0,28.333 0,56.667 0,85 z"
         id="path10" />
    </g>
    <g
       id="g16"
       transform="matrix(0.21804588,0,0,0.21804588,-16.116178,-12.567649)">
      <path
         style="opacity:1"
         fill="#020102"
         d="m 446.5,343.5 c -0.998,30.829 -1.331,61.829 -1,93 -15,0 -30,0 -45,0 0.268,-1.599 -0.066,-2.932 -1,-4 -0.167,-23.669 0,-47.336 0.5,-71 8.631,-43.306 33.798,-72.473 75.5,-87.5 64.542,-15.628 113.709,4.872 147.5,61.5 4.212,8.181 6.879,16.848 8,26 0.667,25.333 0.667,50.667 0,76 -14.755,-0.991 -29.588,-1.324 -44.5,-1 0.167,-31.002 0,-62.002 -0.5,-93 -6.369,-21.11 -19.203,-26.61 -38.5,-16.5 -4.051,3.721 -6.884,8.221 -8.5,13.5 -0.667,42 -0.667,84 0,126 3.5,10.167 10.333,17 20.5,20.5 23.998,0.5 47.998,0.667 72,0.5 7.171,49.001 -7.163,90.168 -43,123.5 -28.189,22.382 -60.189,30.715 -96,25 -35.744,-8.734 -62.578,-29.234 -80.5,-61.5 -6.839,-13.185 -10.839,-27.185 -12,-42 -0.5,-14.996 -0.667,-29.996 -0.5,-45 24.669,0.167 49.336,0 74,-0.5 9.434,-3.101 15.934,-9.268 19.5,-18.5 1.139,-21.793 1.639,-43.626 1.5,-65.5 0.145,-21.549 -0.355,-43.049 -1.5,-64.5 -6.254,-16.087 -17.421,-20.92 -33.5,-14.5 -6.967,4.774 -11.301,11.274 -13,19.5 z"
         id="path14" />
    </g>
    <g
       id="g20"
       transform="matrix(0.21804588,0,0,0.21804588,-16.116178,-12.567649)">
      <path
         style="opacity:1"
         fill="#fcfcfc"
         d="m 268.5,343.5 c 12.837,-0.989 21.337,4.677 25.5,17 0.716,23.888 -1.284,47.555 -6,71 -3.717,31.937 -4.384,63.937 -2,96 4.915,49.784 23.248,93.784 55,132 15.058,14.728 30.391,29.061 46,43 6.841,11.758 5.674,22.591 -3.5,32.5 -10.484,6.157 -20.817,5.823 -31,-1 C 288.557,688.651 250.057,627.151 237,549.5 c -7.229,-61.359 -3.229,-122.025 12,-182 2.387,-11.535 8.887,-19.535 19.5,-24 z"
         id="path18" />
    </g>
    <g
       id="g24"
       transform="matrix(0.21804588,0,0,0.21804588,-16.116178,-12.567649)">
      <path
         style="opacity:1"
         fill="#fcfcfc"
         d="m 750.5,355.5 c 11.766,-2.365 20.599,1.635 26.5,12 17.202,57.564 22.202,116.231 15,176 -5.775,32.873 -16.108,64.206 -31,94 -19.662,34.011 -44.828,63.511 -75.5,88.5 -5.827,4.75 -12.16,8.75 -19,12 -14.158,4.335 -24.325,-0.165 -30.5,-13.5 -0.839,-5.421 -0.506,-10.754 1,-16 2.28,-3.947 4.947,-7.613 8,-11 53.339,-38.977 85.006,-91.31 95,-157 1.779,-15.79 2.945,-31.623 3.5,-47.5 -1.407,-32.956 -4.24,-65.79 -8.5,-98.5 -4.843,-17.356 0.324,-30.356 15.5,-39 z"
         id="path22" />
    </g>
    <g
       id="g28"
       transform="matrix(0.21804588,0,0,0.21804588,-16.116178,-12.567649)">
      <path
         style="opacity:1"
         fill="#888989"
         d="m 446.5,343.5 c 0,31.333 0,62.667 0,94 -15.667,0 -31.333,0 -47,0 0,-1.667 0,-3.333 0,-5 0.934,1.068 1.268,2.401 1,4 15,0 30,0 45,0 -0.331,-31.171 0.002,-62.171 1,-93 z"
         id="path26" />
    </g>
    <g
       id="g32"
       transform="matrix(0.21804588,0,0,0.21804588,-16.116178,-12.567649)">
      <path
         style="opacity:0.108"
         fill="#e1e1e1"
         d="m 836.5,271.5 c 10.153,13.624 19.32,27.957 27.5,43 53.458,108.295 57.458,218.629 12,331 -6.446,14.561 -13.612,28.561 -21.5,42 0.66,-2.316 1.327,-4.649 2,-7 11.408,-19.877 20.575,-40.877 27.5,-63 8.916,-25.331 14.916,-51.331 18,-78 9.021,-72.854 -1.646,-142.52 -32,-209 -5.288,-9.578 -10.288,-19.245 -15,-29 -5.959,-10.126 -12.126,-20.126 -18.5,-30 z"
         id="path30" />
    </g>
    <g
       id="g36"
       transform="matrix(0.21804588,0,0,0.21804588,-16.116178,-12.567649)">
      <path
         style="opacity:1"
         fill="#767a79"
         d="m 541.5,765.5 c 40.17,-0.332 80.17,10e-4 120,1 -39.906,-0.33 -79.739,0.003 -119.5,1 -0.464,-0.594 -0.631,-1.261 -0.5,-2 z"
         id="path34" />
    </g>
    <g
       id="g40"
       transform="matrix(0.21804588,0,0,0.21804588,-16.116178,-12.567649)">
      <path
         style="opacity:0.172"
         fill="#dfdfdf"
         d="m 287.5,818.5 c 4.078,1.557 8.078,3.39 12,5.5 0.667,1 1.333,2 2,3 62.758,37.699 130.925,56.866 204.5,57.5 62.852,1.102 122.352,-11.731 178.5,-38.5 14.022,-8.549 28.355,-16.383 43,-23.5 -50.511,34.723 -106.511,55.223 -168,61.5 -74.604,8.328 -146.271,-2.172 -215,-31.5 -13.145,-6.07 -25.812,-12.904 -38,-20.5 -6.4,-4.522 -12.733,-9.022 -19,-13.5 z"
         id="path38" />
    </g>
  </g>
</svg>
